# xmcd
#
# Track frame offsets:
#	150
#	12441
#	31561
#	44371
#
# Disc length: 772 seconds
#
# Revision: 0
# Processed by: cddbd v1.5.2PL0 Copyright (c) Steve Scherf et al.
# Submitted via: audiograbber 1.83.01
#
DISCID=23030204
DTITLE=Liz Green - The Iron Mountain Tapes
DYEAR=2010
DGENRE=
TTITLE0=Battle
TTITLE1=Empty Handed Blues
TTITLE2=The Ballad of Joe and Oko
TTITLE3=Bei Mir Bist Du Schoen
EXTD=
EXTT0=
EXTT1=
EXTT2=
EXTT3=
PLAYORDER=
